<svg width="227" height="186" viewBox="0 0 227 186" fill="none" xmlns="http://www.w3.org/2000/svg">
<path d="M173.816 51.2163C174.065 46.9942 173.185 43.3022 171.539 40.2622C170.187 37.7645 169.811 34.7799 170.422 31.9131C170.465 31.7122 170.513 31.5116 170.565 31.3121L172.601 23.5876C173.756 19.2068 171.543 14.6629 167.508 13.4708C163.322 12.234 158.905 14.9688 157.714 19.4842L156.597 23.7215C155.588 27.5517 152.878 30.6698 149.363 32.0286C145.931 33.3554 142.712 35.8247 140.166 39.5951C131.335 52.6703 119.983 63.8561 106.717 72.2599C93.4505 80.6636 78.9102 85.8793 64.1069 87.7756C54.8484 88.9616 48.9156 96.1645 47.335 104.164C45.7479 112.197 48.5489 121.034 56.781 125.39C66.778 130.682 77.9734 133.691 89.7198 133.949C120.567 134.626 149.654 116.2 164.363 86.6652C169.969 75.407 173.102 63.3078 173.816 51.2163Z" fill="#EEBF00"/>
<path d="M170.422 31.9131C170.465 31.7122 170.513 31.5116 170.565 31.3121L171.633 27.2603L172.601 23.5876C173.756 19.2068 171.543 14.6629 167.508 13.4708C163.322 12.234 158.905 14.9688 157.714 19.4842L156.682 23.4014L156.597 23.7215C155.588 27.5517 152.878 30.6698 149.363 32.0286C145.931 33.3554 142.712 35.8247 140.166 39.5951C131.335 52.6703 119.983 63.8561 106.717 72.2599C93.4505 80.6636 78.9102 85.8793 64.1069 87.7756C54.8484 88.9616 48.9156 96.1645 47.335 104.164C72.082 113.476 99.7818 110.826 123.368 96.8904C146.796 83.0472 163.912 59.3977 170.422 31.9131Z" fill="#FFD422"/>
<path d="M173.262 21.6783L174.231 18.0056C175.385 13.6248 173.172 9.0809 169.138 7.88884C164.952 6.65199 160.534 9.38679 159.343 13.9022L158.311 17.8194C162.865 20.4435 168.01 21.7717 173.262 21.6783Z" fill="#AA6100"/>
<path d="M85.0356 125.058C84.3623 127.487 78.2276 129.179 71.34 127.269C64.4525 125.36 59.4203 120.571 60.0935 118.143C60.7667 115.715 66.896 115.294 73.7835 117.204C80.6711 119.114 85.7088 122.63 85.0356 125.058Z" fill="white"/>
<path d="M140.296 48.9543C138.995 47.6772 140.306 42.9643 144.232 38.9641C148.159 34.9639 153.214 33.1912 154.515 34.4683C155.816 35.7454 153.688 40.0236 149.762 44.0238C145.835 48.024 141.597 50.2315 140.296 48.9543Z" fill="white" fill-opacity="0.85"/>
</svg>
