<svg width="70" height="72" viewBox="0 0 70 72" fill="none" xmlns="http://www.w3.org/2000/svg">
<g filter="url(#filter0_d_0_86)">
<path d="M64.6974 39.6611C65.3395 40.0481 65.5963 40.8223 65.4679 41.4675C63.9269 46.1125 61.6154 50.2415 58.405 53.7252C57.8913 54.2414 57.1208 54.3704 56.4787 53.9833L50.9568 50.8866C48.6453 52.822 46.077 54.3704 43.2518 55.4026V61.7251C43.2518 62.3702 42.7382 63.0153 41.9677 63.2734C37.4731 64.1766 32.7217 64.3056 27.9702 63.2734C27.3282 63.0153 26.8145 62.3702 26.8145 61.7251V55.4026C23.8609 54.3704 21.2926 52.822 18.9811 50.8866L13.4592 53.9833C12.8171 54.3704 12.0466 54.2414 11.5329 53.7252C8.45092 50.2415 6.011 46.1125 4.59842 41.4675C4.34159 40.8223 4.59842 40.0481 5.2405 39.6611L10.7624 36.5644C10.2488 33.4677 10.2488 30.5 10.7624 27.4033L5.2405 24.3066C4.59842 23.9195 4.34159 23.1453 4.59842 22.5002C6.011 17.8551 8.45092 13.7262 11.5329 10.2424C12.0466 9.72629 12.8171 9.59726 13.4592 9.98434L18.9811 13.2101C21.2926 11.1456 23.8609 9.59726 26.8145 8.56502V2.24259C26.8145 1.59745 27.1997 0.952301 27.9702 0.823271C32.4648 -0.208962 37.2162 -0.337991 41.9677 0.823271C42.7382 0.952301 43.2518 1.59745 43.2518 2.24259V8.56502C46.077 9.59726 48.6453 11.1456 50.9568 13.081L56.4787 9.98434C57.1208 9.59726 57.8913 9.72629 58.405 10.2424C61.487 13.7262 63.9269 17.8551 65.3395 22.5002C65.5963 23.1453 65.3395 23.9195 64.6974 24.3066L59.1755 27.4033C59.8176 30.5 59.8176 33.4677 59.1755 36.5644L64.6974 39.6611ZM35.0332 42.2416C40.6835 42.2416 45.3065 37.7256 45.3065 31.9193C45.3065 26.242 40.6835 21.597 35.0332 21.597C29.2544 21.597 24.7598 26.242 24.7598 31.9193C24.7598 37.7256 29.2544 42.2416 35.0332 42.2416Z" fill="url(#paint0_linear_0_86)"/>
</g>
<defs>
<filter id="filter0_d_0_86" x="-1" y="0" width="72" height="72" filterUnits="userSpaceOnUse" color-interpolation-filters="sRGB">
<feFlood flood-opacity="0" result="BackgroundImageFix"/>
<feColorMatrix in="SourceAlpha" type="matrix" values="0 0 0 0 0 0 0 0 0 0 0 0 0 0 0 0 0 0 127 0" result="hardAlpha"/>
<feOffset dy="4"/>
<feGaussianBlur stdDeviation="2"/>
<feComposite in2="hardAlpha" operator="out"/>
<feColorMatrix type="matrix" values="0 0 0 0 0 0 0 0 0 0 0 0 0 0 0 0 0 0 0.25 0"/>
<feBlend mode="normal" in2="BackgroundImageFix" result="effect1_dropShadow_0_86"/>
<feBlend mode="normal" in="SourceGraphic" in2="effect1_dropShadow_0_86" result="shape"/>
</filter>
<linearGradient id="paint0_linear_0_86" x1="35" y1="0" x2="35" y2="382" gradientUnits="userSpaceOnUse">
<stop stop-color="white"/>
<stop offset="1" stop-color="#F98C57" stop-opacity="0"/>
</linearGradient>
</defs>
</svg>
