<svg width="299" height="284" viewBox="0 0 299 284" fill="none" xmlns="http://www.w3.org/2000/svg">
<path d="M72.483 201.181L81.0251 187.272C84.1616 182.164 90.1928 179.609 96.0435 180.909L96.6942 181.054L104.289 183.079C105.018 183.273 105.761 183.409 106.511 183.484L116.97 184.529H128.557H136.084C136.858 184.529 137.63 184.465 138.393 184.338L151.15 182.212L160.964 179.759C164.859 178.786 168.961 180.202 171.426 183.371L173.682 186.529C174.109 187.126 174.488 187.755 174.816 188.411L176.64 192.059L180.116 197.852L182.837 201.932C183.339 202.686 183.768 203.486 184.116 204.322L185.109 206.704C186.005 208.854 186.184 211.236 185.618 213.496C185.427 214.263 185.152 215.006 184.798 215.713L184.612 216.086C183.936 217.437 183.048 218.669 181.98 219.737L181.1 220.617C180.446 221.271 179.729 221.859 178.959 222.372L178.465 222.701C177.256 223.507 175.929 224.121 174.532 224.52L172.585 225.076L170.003 225.937C169.411 226.134 168.791 226.235 168.167 226.235C166.53 226.235 165.278 227.693 165.527 229.311L165.633 230C165.983 232.27 167.689 234.093 169.931 234.591L170.705 234.763C171.185 234.869 171.674 234.923 172.165 234.923H175.482H178.958H181.043C181.968 234.923 182.89 234.832 183.797 234.65L186.793 234.051C187.746 233.861 188.677 233.572 189.571 233.189L192.282 232.027L196.917 229.71L200.579 227.269C201.609 226.582 202.543 225.763 203.359 224.831L205.3 222.612C205.889 221.939 206.412 221.212 206.863 220.44L209.604 215.741C210.028 215.015 210.385 214.253 210.673 213.463L212.037 209.711C212.383 208.759 212.626 207.771 212.76 206.767L213.717 199.59L215.455 189.742L217.037 179.194C217.141 178.504 217.193 177.807 217.193 177.11V174.427C217.193 173.06 217.392 171.7 217.785 170.39L218.931 166.573L219.784 162.733C219.987 161.82 220.281 160.929 220.661 160.074L222.407 156.147L223.227 153.96C223.833 152.342 224.733 150.85 225.881 149.559L228.779 146.3L231.679 142.571C232.446 141.586 233.341 140.707 234.339 139.958L237.469 137.611L241.746 134.617C242.752 133.913 243.847 133.344 245.001 132.924L249.635 131.239L256.007 128.922L259.716 128.098C260.716 127.876 261.738 127.764 262.763 127.764H265.856H268.369C269.394 127.764 270.416 127.876 271.416 128.098L273.752 128.617C274.665 128.82 275.555 129.114 276.41 129.493L280.339 131.239L284.128 132.923C285.073 133.343 285.956 133.892 286.75 134.554L287.593 135.256C288.534 136.04 289.255 137.055 289.685 138.202L289.844 138.627C290.432 140.195 290.341 141.937 289.592 143.435C289.22 144.178 288.694 144.84 288.056 145.372C286.498 146.671 284.385 147.125 282.435 146.567L282.103 146.473C281.7 146.358 281.308 146.205 280.933 146.018L279.106 145.104C278.384 144.743 277.633 144.445 276.86 144.214L272.228 142.824L267.67 141.581C266.466 141.253 265.223 141.086 263.974 141.086H261.545C260.178 141.086 258.818 141.286 257.508 141.679L255.373 142.319C254.255 142.654 253.184 143.128 252.183 143.728L247.897 146.3L244.061 149.176C243.529 149.575 243.026 150.011 242.556 150.481L239.497 153.539C238.919 154.118 238.391 154.746 237.922 155.417L235.657 158.651C234.937 159.68 234.358 160.8 233.936 161.983L231.676 168.311L229.938 175.261L228.779 183.371L227.314 190.695C227.133 191.602 227.041 192.525 227.041 193.451V200.164C227.041 200.938 226.977 201.711 226.85 202.474L225.484 210.666C225.364 211.39 225.187 212.103 224.955 212.799L222.894 218.979C222.57 219.951 222.14 220.886 221.613 221.765L218.931 226.235L216.345 230.544C215.754 231.529 215.044 232.438 214.232 233.25L211.4 236.082L207.084 239.438C206.486 239.903 205.851 240.318 205.186 240.681L199.813 243.612L195.179 245.349L191.897 246.662C190.238 247.325 188.467 247.666 186.68 247.666H182.434H175.482H170.847H169.109C167.509 247.666 166.213 248.963 166.213 250.563V256.441C166.213 258.296 165.845 260.133 165.132 261.845L163.316 266.202L159.261 273.732L156.897 277.278C155.425 279.485 153.244 281.144 150.727 281.982C148.764 282.637 146.62 282.578 144.699 281.81C143.149 281.19 142.406 279.422 143.048 277.882L143.532 276.72C144.354 274.748 144.778 272.632 144.778 270.495V268.519V265.218C144.778 263.974 144.389 262.762 143.666 261.75C142.546 260.182 140.738 259.251 138.811 259.251H132.612H121.026H115.296C113.417 259.251 111.632 260.072 110.41 261.498C109.41 262.665 108.86 264.15 108.86 265.687V270.435C108.86 272.615 109.252 274.778 110.018 276.82L110.518 278.153C111.397 280.498 109.664 283 107.159 283C106.383 283 105.628 282.748 105.007 282.283L103.689 281.294C100.597 278.976 97.9609 276.106 95.9128 272.83L93.2183 268.519L87.7499 257.584C86.7743 255.633 86.2664 253.482 86.2664 251.3V234.725C86.2664 230.457 84.3262 226.42 80.9932 223.754L75.679 219.503C70.1445 215.076 68.7742 207.22 72.483 201.181Z" fill="#D2714C" stroke="#D2714C" stroke-width="0.351213"/>
<circle cx="30.0006" cy="97.8763" r="29.0006" fill="#D2714C"/>
<g filter="url(#filter0_f_0_3916)">
<circle cx="31.8129" cy="97.8768" r="21.7504" fill="#FFE1C2"/>
</g>
<g filter="url(#filter1_f_0_3916)">
<ellipse cx="26.5674" cy="108.775" rx="12.5596" ry="10.9896" fill="#D2714C" fill-opacity="0.51"/>
</g>
<circle cx="29.0006" cy="29.0006" r="29.0006" transform="matrix(-1 0 0 1 245.69 68.8759)" fill="#D2714C"/>
<g filter="url(#filter2_f_0_3916)">
<circle cx="21.7504" cy="21.7504" r="21.7504" transform="matrix(-1 0 0 1 236.628 76.1265)" fill="#FFE1C2"/>
</g>
<g filter="url(#filter3_f_0_3916)">
<ellipse cx="12.3353" cy="10.9896" rx="12.3353" ry="10.9896" transform="matrix(-1 0 0 1 232.453 97.7854)" fill="#D2714C" fill-opacity="0.51"/>
</g>
<g filter="url(#filter4_f_0_3916)">
<path d="M277.758 140.174C277.758 143.271 280.369 145.781 283.59 145.781C286.81 145.781 289.421 143.271 289.421 140.174C289.421 137.078 286.81 134.567 283.59 134.567C280.369 134.567 277.758 137.078 277.758 140.174Z" fill="white" fill-opacity="0.9"/>
</g>
<path fill-rule="evenodd" clip-rule="evenodd" d="M136.511 0.548891C141.214 2.26076 143.639 7.46132 141.927 12.1647L135.108 30.9001C133.641 34.9299 129.614 37.2873 125.532 36.8031C124.862 37.2902 124.114 37.693 123.296 37.9904C118.593 39.7023 113.393 37.2772 111.681 32.5739L104.862 13.8384C103.15 9.13509 105.575 3.93453 110.278 2.22266C114.981 0.510788 120.182 2.93584 121.894 7.63918L123.09 10.9253L124.895 5.96541C126.607 1.26208 131.808 -1.16298 136.511 0.548891Z" fill="#D2714C"/>
<path d="M216.693 107.214C216.693 150.107 174.901 184.878 123.348 184.878C71.7942 184.878 30.002 150.107 30.002 107.214C30.002 64.3217 71.7942 16.3123 123.348 16.3123C174.901 16.3123 216.693 64.3217 216.693 107.214Z" fill="#D2714C"/>
<path fill-rule="evenodd" clip-rule="evenodd" d="M45.168 149.666C46.0211 132.602 60.0671 117.815 78.6899 117.815H168.16C186.713 117.815 200.727 132.493 201.672 149.48C185.028 170.787 156.166 184.878 123.347 184.878C90.6243 184.878 61.8342 170.869 45.168 149.666Z" fill="#FFE1C2"/>
<g filter="url(#filter5_f_0_3916)">
<path d="M197.917 79.8713C197.917 104.34 162.07 83.4771 122.824 83.4771C83.5779 83.4771 44.959 104.765 44.959 79.8713C44.959 54.9778 81.3025 26.6477 120.304 22.177C147.267 19.0863 197.917 52.8271 197.917 79.8713Z" fill="url(#paint0_linear_0_3916)"/>
</g>
<path fill-rule="evenodd" clip-rule="evenodd" d="M159.551 145.762C181.099 145.762 198.566 125.899 198.566 101.397C198.566 76.8954 181.099 57.0327 159.551 57.0327C143.956 57.0327 130.497 67.4383 124.252 82.477C118.007 67.4384 104.549 57.0329 88.9533 57.0329C67.406 57.0329 49.9385 76.8956 49.9385 101.397C49.9385 125.899 67.406 145.762 88.9533 145.762C104.549 145.762 118.008 135.356 124.252 120.318C130.497 135.356 143.956 145.762 159.551 145.762Z" fill="#FFE1C2"/>
<path d="M178.63 110.565C178.63 120.575 172.138 110.565 164.13 110.565C156.122 110.565 149.63 120.575 149.63 110.565C149.63 100.554 156.122 92.4392 164.13 92.4392C172.138 92.4392 178.63 100.554 178.63 110.565Z" fill="#562B30"/>
<path d="M169.456 106.418C169.456 109.922 167.022 106.418 164.019 106.418C161.016 106.418 158.581 109.922 158.581 106.418C158.581 102.915 161.016 100.074 164.019 100.074C167.022 100.074 169.456 102.915 169.456 106.418Z" fill="white"/>
<path d="M103.936 110.732C103.936 120.742 97.4441 110.732 89.4358 110.732C81.4275 110.732 74.9355 120.742 74.9355 110.732C74.9355 100.721 81.4275 92.6062 89.4358 92.6062C97.4441 92.6062 103.936 100.721 103.936 110.732Z" fill="#562B30"/>
<path d="M94.7619 106.585C94.7619 110.089 92.3274 106.585 89.3243 106.585C86.3212 106.585 83.8867 110.089 83.8867 106.585C83.8867 103.082 86.3212 100.241 89.3243 100.241C92.3274 100.241 94.7619 103.082 94.7619 106.585Z" fill="white"/>
<path d="M138.179 128.956C138.179 132.341 132.848 134.525 126.272 134.525C119.695 134.525 114.364 132.341 114.364 128.956C114.364 125.571 119.695 121.441 126.272 121.441C132.848 121.441 138.179 125.571 138.179 128.956Z" fill="#562B30"/>
<circle cx="131.735" cy="126.118" r="1.68103" fill="white"/>
<path d="M126.218 124.892V137.284C126.218 141.331 129.499 144.612 133.545 144.612H134.569C138.051 144.612 140.873 141.789 140.873 138.308V138.308" stroke="#562B30" stroke-width="3.08189" stroke-linecap="round" stroke-linejoin="round"/>
<path d="M126.218 124.891V137.283C126.218 141.33 122.937 144.611 118.89 144.611H117.866C114.385 144.611 111.562 141.788 111.562 138.307V138.307" stroke="#562B30" stroke-width="3.08189" stroke-linecap="round" stroke-linejoin="round"/>
<g filter="url(#filter6_f_0_3916)">
<ellipse cx="174.283" cy="141.396" rx="13.594" ry="9.96895" fill="#FFB99B"/>
</g>
<g filter="url(#filter7_f_0_3916)">
<ellipse cx="79.637" cy="141.396" rx="13.594" ry="9.96895" fill="#FFB99B"/>
</g>
<g filter="url(#filter8_f_0_3916)">
<ellipse cx="80.2902" cy="214.231" rx="9.88915" ry="5.12503" transform="rotate(41.3313 80.2902 214.231)" fill="#A14724" fill-opacity="0.63"/>
</g>
<g filter="url(#filter9_f_0_3916)">
<ellipse cx="126.359" cy="221.981" rx="20.1821" ry="25.6914" transform="rotate(1.97407 126.359 221.981)" fill="#FFE1C2" fill-opacity="0.9"/>
</g>
<path d="M142.014 137.473C144.93 148.239 138.385 163.265 126.315 163.265C116.901 163.265 107.027 147.79 110.84 137.473C111.617 135.37 115.607 153.192 126.315 141.744C138.932 150.276 137.039 141.066 142.014 137.473Z" fill="#562B30"/>
<path d="M181.54 211.241L185.091 209.111C187.545 207.147 189.498 204.629 190.787 201.762L192.131 198.777C192.167 198.697 192.186 198.609 192.186 198.521V191.628C192.186 191.583 192.182 191.538 192.176 191.493C191.213 184.752 192.159 177.804 194.925 171.581C195.076 171.242 195.413 171.023 195.785 171.023H198.16H200.331C202.081 171.023 203.792 171.541 205.248 172.511C205.253 172.515 205.258 172.517 205.263 172.52L208.858 174.179C209.545 174.496 209.839 175.316 209.509 175.998L208.574 177.929C205.898 183.46 204.508 189.524 204.508 195.668L204.893 201.051C205.133 204.414 204.87 207.793 204.112 211.078C203.386 214.223 202.115 217.216 200.356 219.922L199.534 221.187C198.624 222.587 197.496 223.832 196.192 224.875C192.632 227.723 188.208 229.275 183.648 229.275H181.349C178.407 229.275 175.506 228.59 172.875 227.274L170.154 225.914L172.768 221.433L176.876 216.205L181.211 211.509C181.308 211.404 181.419 211.314 181.54 211.241Z" fill="#D2714C" stroke="#D2714C" stroke-width="0.746824"/>
<circle cx="201.521" cy="170.649" r="11.5758" fill="#D2714C"/>
<circle cx="201.521" cy="170.649" r="11.5758" fill="#D2714C"/>
<circle cx="201.521" cy="170.649" r="11.5758" fill="#D2714C"/>
<g filter="url(#filter10_f_0_3916)">
<circle cx="201.148" cy="170.276" r="7.46824" fill="#D2714C"/>
<circle cx="201.148" cy="170.276" r="7.46824" fill="#D2714C"/>
<circle cx="201.148" cy="170.276" r="7.46824" fill="#F9D1B2"/>
</g>
<path d="M221.144 154.92C221.234 153.383 220.914 152.038 220.315 150.931C219.822 150.021 219.685 148.934 219.908 147.889C219.923 147.816 219.941 147.743 219.96 147.671L220.701 144.857C221.122 143.261 220.316 141.606 218.846 141.172C217.322 140.722 215.712 141.718 215.279 143.362L214.872 144.906C214.504 146.301 213.517 147.437 212.237 147.932C210.987 148.415 209.815 149.314 208.887 150.688C205.67 155.45 201.536 159.524 196.704 162.585C191.871 165.646 186.575 167.546 181.183 168.237C177.811 168.669 175.65 171.292 175.074 174.206C174.496 177.132 175.516 180.351 178.515 181.938C182.156 183.865 186.234 184.961 190.512 185.055C201.748 185.302 212.343 178.59 217.701 167.832C219.743 163.732 220.884 159.325 221.144 154.92Z" fill="#EEBF00"/>
<path d="M219.908 147.889C219.923 147.816 219.941 147.743 219.96 147.671L220.349 146.195L220.701 144.857C221.122 143.261 220.316 141.606 218.846 141.172C217.322 140.722 215.712 141.718 215.279 143.362L214.903 144.789L214.872 144.906C214.504 146.301 213.517 147.437 212.237 147.932C210.987 148.415 209.815 149.314 208.887 150.688C205.67 155.45 201.536 159.524 196.704 162.585C191.871 165.646 186.575 167.546 181.183 168.237C177.811 168.669 175.65 171.292 175.074 174.206C184.088 177.598 194.177 176.633 202.768 171.557C211.302 166.515 217.536 157.9 219.908 147.889Z" fill="#FFD422"/>
<path d="M220.942 144.162L221.295 142.824C221.716 141.228 220.91 139.573 219.44 139.139C217.915 138.688 216.306 139.685 215.873 141.329L215.496 142.756C217.155 143.712 219.029 144.196 220.942 144.162Z" fill="#AA6100"/>
<path d="M188.806 181.817C188.561 182.701 186.326 183.318 183.817 182.622C181.309 181.927 179.476 180.182 179.721 179.298C179.966 178.414 182.199 178.26 184.707 178.956C187.216 179.651 189.051 180.932 188.806 181.817Z" fill="white"/>
<path d="M208.935 154.097C208.461 153.631 208.939 151.915 210.369 150.458C211.799 149.001 213.641 148.355 214.115 148.82C214.588 149.285 213.813 150.844 212.383 152.301C210.953 153.758 209.409 154.562 208.935 154.097Z" fill="white" fill-opacity="0.85"/>
<defs>
<filter id="filter0_f_0_3916" x="5.48722" y="71.5511" width="52.6515" height="52.6514" filterUnits="userSpaceOnUse" color-interpolation-filters="sRGB">
<feFlood flood-opacity="0" result="BackgroundImageFix"/>
<feBlend mode="normal" in="SourceGraphic" in2="BackgroundImageFix" result="shape"/>
<feGaussianBlur stdDeviation="2.28764" result="effect1_foregroundBlur_0_3916"/>
</filter>
<filter id="filter1_f_0_3916" x="0.595962" y="84.3735" width="51.9428" height="48.8029" filterUnits="userSpaceOnUse" color-interpolation-filters="sRGB">
<feFlood flood-opacity="0" result="BackgroundImageFix"/>
<feBlend mode="normal" in="SourceGraphic" in2="BackgroundImageFix" result="shape"/>
<feGaussianBlur stdDeviation="6.70593" result="effect1_foregroundBlur_0_3916"/>
</filter>
<filter id="filter2_f_0_3916" x="188.552" y="71.5512" width="52.6515" height="52.6514" filterUnits="userSpaceOnUse" color-interpolation-filters="sRGB">
<feFlood flood-opacity="0" result="BackgroundImageFix"/>
<feBlend mode="normal" in="SourceGraphic" in2="BackgroundImageFix" result="shape"/>
<feGaussianBlur stdDeviation="2.28764" result="effect1_foregroundBlur_0_3916"/>
</filter>
<filter id="filter3_f_0_3916" x="194.774" y="84.7773" width="50.6872" height="47.9955" filterUnits="userSpaceOnUse" color-interpolation-filters="sRGB">
<feFlood flood-opacity="0" result="BackgroundImageFix"/>
<feBlend mode="normal" in="SourceGraphic" in2="BackgroundImageFix" result="shape"/>
<feGaussianBlur stdDeviation="6.50408" result="effect1_foregroundBlur_0_3916"/>
</filter>
<filter id="filter4_f_0_3916" x="268.205" y="125.013" width="30.7706" height="30.3224" filterUnits="userSpaceOnUse" color-interpolation-filters="sRGB">
<feFlood flood-opacity="0" result="BackgroundImageFix"/>
<feBlend mode="normal" in="SourceGraphic" in2="BackgroundImageFix" result="shape"/>
<feGaussianBlur stdDeviation="4.77713" result="effect1_foregroundBlur_0_3916"/>
</filter>
<filter id="filter5_f_0_3916" x="28.8109" y="5.83108" width="185.254" height="102.271" filterUnits="userSpaceOnUse" color-interpolation-filters="sRGB">
<feFlood flood-opacity="0" result="BackgroundImageFix"/>
<feBlend mode="normal" in="SourceGraphic" in2="BackgroundImageFix" result="shape"/>
<feGaussianBlur stdDeviation="8.07403" result="effect1_foregroundBlur_0_3916"/>
</filter>
<filter id="filter6_f_0_3916" x="153.108" y="123.847" width="42.3497" height="35.0991" filterUnits="userSpaceOnUse" color-interpolation-filters="sRGB">
<feFlood flood-opacity="0" result="BackgroundImageFix"/>
<feBlend mode="normal" in="SourceGraphic" in2="BackgroundImageFix" result="shape"/>
<feGaussianBlur stdDeviation="3.79031" result="effect1_foregroundBlur_0_3916"/>
</filter>
<filter id="filter7_f_0_3916" x="58.4624" y="123.847" width="42.3497" height="35.0991" filterUnits="userSpaceOnUse" color-interpolation-filters="sRGB">
<feFlood flood-opacity="0" result="BackgroundImageFix"/>
<feBlend mode="normal" in="SourceGraphic" in2="BackgroundImageFix" result="shape"/>
<feGaussianBlur stdDeviation="3.79031" result="effect1_foregroundBlur_0_3916"/>
</filter>
<filter id="filter8_f_0_3916" x="68.2579" y="202.78" width="24.0642" height="22.9013" filterUnits="userSpaceOnUse" color-interpolation-filters="sRGB">
<feFlood flood-opacity="0" result="BackgroundImageFix"/>
<feBlend mode="normal" in="SourceGraphic" in2="BackgroundImageFix" result="shape"/>
<feGaussianBlur stdDeviation="1.93452" result="effect1_foregroundBlur_0_3916"/>
</filter>
<filter id="filter9_f_0_3916" x="92.1888" y="182.314" width="68.3412" height="79.3339" filterUnits="userSpaceOnUse" color-interpolation-filters="sRGB">
<feFlood flood-opacity="0" result="BackgroundImageFix"/>
<feBlend mode="normal" in="SourceGraphic" in2="BackgroundImageFix" result="shape"/>
<feGaussianBlur stdDeviation="6.99057" result="effect1_foregroundBlur_0_3916"/>
</filter>
<filter id="filter10_f_0_3916" x="190.692" y="159.82" width="20.9111" height="20.9111" filterUnits="userSpaceOnUse" color-interpolation-filters="sRGB">
<feFlood flood-opacity="0" result="BackgroundImageFix"/>
<feBlend mode="normal" in="SourceGraphic" in2="BackgroundImageFix" result="shape"/>
<feGaussianBlur stdDeviation="1.49365" result="effect1_foregroundBlur_0_3916"/>
</filter>
<linearGradient id="paint0_linear_0_3916" x1="121.438" y1="21.9791" x2="121.438" y2="91.954" gradientUnits="userSpaceOnUse">
<stop stop-color="#8F3B1B"/>
<stop offset="0.280912" stop-color="#A24A29" stop-opacity="0.94"/>
<stop offset="1" stop-color="#D2714C" stop-opacity="0.78"/>
</linearGradient>
</defs>
</svg>
