<svg width="42" height="27" viewBox="0 0 42 27" fill="none" xmlns="http://www.w3.org/2000/svg">
<path d="M9.85406 26.396C6.78206 26.396 4.43006 25.256 2.79806 22.976C1.19006 20.672 0.386062 17.42 0.386062 13.22C0.386062 10.412 0.746062 8.048 1.46606 6.128C2.21006 4.184 3.27806 2.72 4.67006 1.736C6.08606 0.727999 7.81406 0.223999 9.85406 0.223999C12.9501 0.223999 15.3021 1.34 16.9101 3.572C18.5181 5.78 19.3221 8.996 19.3221 13.22C19.3221 16.028 18.9501 18.416 18.2061 20.384C17.4861 22.328 16.4301 23.816 15.0381 24.848C13.6461 25.88 11.9181 26.396 9.85406 26.396ZM9.85406 21.86C11.2461 21.86 12.2781 21.176 12.9501 19.808C13.6221 18.416 13.9581 16.22 13.9581 13.22C13.9581 10.22 13.6221 8.06 12.9501 6.74C12.2781 5.42 11.2461 4.76 9.85406 4.76C8.46206 4.76 7.43006 5.42 6.75806 6.74C6.08606 8.06 5.75006 10.22 5.75006 13.22C5.75006 16.22 6.08606 18.416 6.75806 19.808C7.43006 21.176 8.46206 21.86 9.85406 21.86ZM26.328 26C25.44 26 24.78 25.796 24.348 25.388C23.94 24.956 23.736 24.332 23.736 23.516C23.736 22.988 23.868 22.496 24.132 22.04C24.396 21.584 24.756 21.116 25.212 20.636L31.98 13.508C32.988 12.428 33.708 11.468 34.14 10.628C34.596 9.788 34.824 8.948 34.824 8.108C34.824 7.052 34.476 6.248 33.78 5.696C33.108 5.144 32.124 4.868 30.828 4.868C30.132 4.868 29.412 4.976 28.668 5.192C27.948 5.384 27.192 5.708 26.4 6.164C25.872 6.452 25.38 6.56 24.924 6.488C24.492 6.392 24.12 6.188 23.808 5.876C23.496 5.54 23.292 5.144 23.196 4.688C23.1 4.232 23.148 3.776 23.34 3.32C23.532 2.864 23.892 2.48 24.42 2.168C25.476 1.52 26.628 1.04 27.876 0.727999C29.124 0.391999 30.36 0.223999 31.584 0.223999C33.48 0.223999 35.076 0.511999 36.372 1.088C37.668 1.64 38.652 2.456 39.324 3.536C39.996 4.616 40.332 5.936 40.332 7.496C40.332 8.504 40.176 9.488 39.864 10.448C39.552 11.408 39.06 12.38 38.388 13.364C37.74 14.324 36.876 15.356 35.796 16.46L29.496 22.868V21.428H39.252C40.02 21.428 40.596 21.62 40.98 22.004C41.388 22.388 41.592 22.952 41.592 23.696C41.592 24.44 41.388 25.016 40.98 25.424C40.596 25.808 40.02 26 39.252 26H26.328Z" fill="#FFFEFF"/>
</svg>
