<svg width="42" height="27" viewBox="0 0 42 27" fill="none" xmlns="http://www.w3.org/2000/svg">
<path d="M9.85406 26.396C6.78206 26.396 4.43006 25.256 2.79806 22.976C1.19006 20.672 0.386062 17.42 0.386062 13.22C0.386062 10.412 0.746062 8.048 1.46606 6.128C2.21006 4.184 3.27806 2.72 4.67006 1.736C6.08606 0.727999 7.81406 0.223999 9.85406 0.223999C12.9501 0.223999 15.3021 1.34 16.9101 3.572C18.5181 5.78 19.3221 8.996 19.3221 13.22C19.3221 16.028 18.9501 18.416 18.2061 20.384C17.4861 22.328 16.4301 23.816 15.0381 24.848C13.6461 25.88 11.9181 26.396 9.85406 26.396ZM9.85406 21.86C11.2461 21.86 12.2781 21.176 12.9501 19.808C13.6221 18.416 13.9581 16.22 13.9581 13.22C13.9581 10.22 13.6221 8.06 12.9501 6.74C12.2781 5.42 11.2461 4.76 9.85406 4.76C8.46206 4.76 7.43006 5.42 6.75806 6.74C6.08606 8.06 5.75006 10.22 5.75006 13.22C5.75006 16.22 6.08606 18.416 6.75806 19.808C7.43006 21.176 8.46206 21.86 9.85406 21.86ZM31.548 26.396C30.276 26.396 28.98 26.252 27.66 25.964C26.364 25.652 25.236 25.22 24.276 24.668C23.652 24.332 23.22 23.936 22.98 23.48C22.764 23 22.68 22.532 22.728 22.076C22.8 21.62 22.992 21.224 23.304 20.888C23.616 20.528 24.012 20.3 24.492 20.204C24.996 20.108 25.548 20.204 26.148 20.492C27.084 20.948 27.972 21.272 28.812 21.464C29.652 21.656 30.492 21.752 31.332 21.752C32.292 21.752 33.096 21.632 33.744 21.392C34.392 21.128 34.884 20.756 35.22 20.276C35.556 19.796 35.724 19.196 35.724 18.476C35.724 17.468 35.376 16.712 34.68 16.208C33.984 15.704 32.964 15.452 31.62 15.452H29.496C28.704 15.452 28.092 15.26 27.66 14.876C27.252 14.468 27.048 13.916 27.048 13.22C27.048 12.5 27.252 11.948 27.66 11.564C28.092 11.156 28.704 10.952 29.496 10.952H31.08C31.896 10.952 32.58 10.832 33.132 10.592C33.708 10.328 34.152 9.968 34.464 9.512C34.8 9.056 34.968 8.492 34.968 7.82C34.968 6.86 34.632 6.128 33.96 5.624C33.312 5.12 32.364 4.868 31.116 4.868C30.348 4.868 29.592 4.964 28.848 5.156C28.104 5.324 27.3 5.636 26.436 6.092C25.908 6.356 25.416 6.44 24.96 6.344C24.504 6.248 24.12 6.032 23.808 5.696C23.52 5.36 23.328 4.976 23.232 4.544C23.16 4.088 23.22 3.632 23.412 3.176C23.628 2.72 24.012 2.348 24.564 2.06C25.596 1.46 26.712 1.004 27.912 0.692C29.136 0.379999 30.372 0.223999 31.62 0.223999C33.444 0.223999 35.004 0.499999 36.3 1.052C37.596 1.604 38.592 2.396 39.288 3.428C39.984 4.436 40.332 5.66 40.332 7.1C40.332 8.084 40.14 8.984 39.756 9.8C39.372 10.616 38.832 11.312 38.136 11.888C37.464 12.44 36.636 12.836 35.652 13.076V12.608C37.356 12.896 38.688 13.604 39.648 14.732C40.608 15.86 41.088 17.276 41.088 18.98C41.088 20.492 40.704 21.812 39.936 22.94C39.168 24.044 38.064 24.896 36.624 25.496C35.208 26.096 33.516 26.396 31.548 26.396Z" fill="#FFFEFF"/>
</svg>
