<svg width="739" height="284" viewBox="0 0 739 284" fill="none" xmlns="http://www.w3.org/2000/svg">
<path d="M297.953 48.2134L341.751 36.5467L489.071 2.11244C505.659 -1.76479 523.113 1.8464 536.8 11.9876L676.347 115.379C681.107 118.906 685.298 123.141 688.776 127.937L727.175 180.899C753.894 217.751 729.688 269.613 684.281 272.802L619.649 277.341L520.5 282.42L499 281L462.5 283.552H439H415.5H374.5H340H297.953L270.985 282.42H243.242C242.083 282.42 240.925 282.325 239.781 282.138L231.327 280.753C217.556 278.497 204.308 273.764 192.224 266.785C190.752 265.934 189.432 264.843 188.32 263.557L186.77 261.763C175.05 248.205 178.148 227.396 193.307 217.839L210.5 207L245.739 189.5L270.985 176.165L283.199 170.357C284.385 169.793 285.681 169.5 286.995 169.5C288.415 169.5 289.095 167.754 288.047 166.793L287.692 166.468C285.961 164.881 283.697 164 281.348 164H274.882C274.628 164 274.374 164.02 274.123 164.06L252.5 167.5L199 176.165L146 186.302L111 189.5H81L36.5579 187.006C28.3961 186.548 20.589 183.518 14.2561 178.349L13.1983 177.485C6.87661 172.325 2.56148 165.114 1.0021 157.105L0.710716 155.608C-0.0864559 151.513 0.036479 147.292 1.07063 143.251C2.59194 137.306 6.01449 132.021 10.8171 128.2L16.7799 123.457C19.0863 121.623 21.5478 119.992 24.1367 118.584L37.1051 111.531C40.3936 109.743 43.8475 108.277 47.4185 107.154L79.1535 97.1755L119.509 87.0388L170.001 75.1808L225.657 61.7928L297.953 48.2134Z" fill="url(#paint0_linear_0_79)"/>
<defs>
<linearGradient id="paint0_linear_0_79" x1="241" y1="240" x2="686" y2="227.5" gradientUnits="userSpaceOnUse">
<stop stop-color="#9CB71A"/>
<stop offset="1" stop-color="#CCD91A" stop-opacity="0.5"/>
</linearGradient>
</defs>
</svg>
