<svg width="97" height="98" viewBox="0 0 97 98" fill="none" xmlns="http://www.w3.org/2000/svg">
<path d="M70.1184 35.6238C69.8372 33.9621 69.1651 32.6073 68.254 31.5742C67.5054 30.7254 67.092 29.6002 67.073 28.4323C67.0716 28.3505 67.072 28.2683 67.0746 28.1862L67.1738 25.0045C67.2301 23.2001 65.964 21.6339 64.2906 21.5322C62.5545 21.4266 61.084 22.884 61.0259 24.7438L60.9715 26.4891C60.9223 28.0668 60.1494 29.52 58.9061 30.3623C57.6922 31.1847 56.6636 32.4316 56.0123 34.1235C53.7536 39.991 50.3472 45.3505 45.9483 49.8012C41.5494 54.2518 36.3704 57.5785 30.7922 59.64C27.3034 60.9292 25.6445 64.2571 25.7469 67.5049C25.8496 70.766 27.7283 73.9463 31.3147 74.9012C35.67 76.0608 40.2866 76.2273 44.8706 75.2759C56.9089 72.7775 66.5539 63.0192 69.6214 50.2344C70.7904 45.3611 70.9236 40.3827 70.1184 35.6238Z" fill="#EEBF00"/>
<path d="M67.073 28.4323C67.0716 28.3505 67.072 28.2683 67.0746 28.1862L67.1266 26.5173L67.1738 25.0045C67.2301 23.2001 65.964 21.6339 64.2906 21.5322C62.5545 21.4266 61.084 22.884 61.0259 24.7439L60.9756 26.3573L60.9715 26.4891C60.9223 28.0668 60.1494 29.52 58.9061 30.3623C57.6922 31.1847 56.6635 32.4316 56.0123 34.1235C53.7536 39.991 50.3472 45.3505 45.9483 49.8012C41.5494 54.2518 36.3704 57.5785 30.7922 59.64C27.3034 60.9293 25.6445 64.2572 25.7469 67.5049C36.1894 68.9051 46.7078 65.3969 54.6185 57.8744C62.4764 50.402 67.0054 39.6871 67.073 28.4323Z" fill="#FFD422"/>
<path d="M67.2586 24.2044L67.3058 22.6916C67.3621 20.8872 66.096 19.321 64.4226 19.2193C62.6865 19.1137 61.216 20.5711 61.1579 22.4309L61.1076 24.0444C63.1107 24.6556 65.2276 24.7108 67.2586 24.2044Z" fill="#AA6100"/>
<path d="M42.2548 72.2432C42.2107 73.2463 39.9802 74.4526 37.1349 74.3277C34.2896 74.2028 31.907 72.7939 31.951 71.7908C31.9951 70.7877 34.3373 70.0758 37.1826 70.2007C40.0279 70.3256 42.2988 71.2401 42.2548 72.2432Z" fill="white"/>
<path d="M56.8994 37.7461C56.2799 37.3667 56.367 35.4194 57.5336 33.5147C58.7001 31.6099 60.5043 30.4691 61.1239 30.8485C61.7434 31.2279 61.2999 33.0796 60.1334 34.9843C58.9669 36.889 57.519 38.1255 56.8994 37.7461Z" fill="white" fill-opacity="0.85"/>
</svg>
