<svg width="72" height="71" viewBox="0 0 72 71" fill="none" xmlns="http://www.w3.org/2000/svg">
<g filter="url(#filter0_d_0_89)">
<path d="M32.5888 3.1337C34.0251 0.228565 38.0946 0.349612 39.4112 3.1337L47.3109 19.233L64.786 21.775C67.898 22.2592 69.0949 26.1327 66.8207 28.4326L54.2531 40.9004L57.2454 58.4523C57.7241 61.5995 54.3727 64.0205 51.6198 62.5679L36.0598 54.2156L20.3802 62.5679C17.6273 64.0205 14.2759 61.5995 14.7546 58.4523L17.7469 40.9004L5.17927 28.4326C2.90512 26.1327 4.10204 22.2592 7.21403 21.775L24.8088 19.233L32.5888 3.1337Z" fill="url(#paint0_linear_0_89)"/>
</g>
<defs>
<filter id="filter0_d_0_89" x="0" y="0" width="72" height="72" filterUnits="userSpaceOnUse" color-interpolation-filters="sRGB">
<feFlood flood-opacity="0" result="BackgroundImageFix"/>
<feColorMatrix in="SourceAlpha" type="matrix" values="0 0 0 0 0 0 0 0 0 0 0 0 0 0 0 0 0 0 127 0" result="hardAlpha"/>
<feOffset dy="4"/>
<feGaussianBlur stdDeviation="2"/>
<feComposite in2="hardAlpha" operator="out"/>
<feColorMatrix type="matrix" values="0 0 0 0 0 0 0 0 0 0 0 0 0 0 0 0 0 0 0.25 0"/>
<feBlend mode="normal" in2="BackgroundImageFix" result="effect1_dropShadow_0_89"/>
<feBlend mode="normal" in="SourceGraphic" in2="effect1_dropShadow_0_89" result="shape"/>
</filter>
<linearGradient id="paint0_linear_0_89" x1="36" y1="1" x2="36" y2="298.5" gradientUnits="userSpaceOnUse">
<stop stop-color="white"/>
<stop offset="1" stop-color="#F705DF" stop-opacity="0"/>
</linearGradient>
</defs>
</svg>
